<svg width="169" height="53" viewBox="0 0 169 53" fill="none" xmlns="http://www.w3.org/2000/svg">
<g clip-path="url(#clip0_1487_19696)">
<path d="M24.009 13.9698C24.799 10.7198 25.179 7.37977 25.119 4.02977L25.149 3.95977C30.949 3.33977 37.439 2.61977 41.199 0.00976562H41.219C41.729 3.29977 42.329 8.70976 35.769 17.8798C29.119 27.1598 18.779 32.1698 10.219 34.8498V34.8298C12.269 33.1998 14.169 31.3898 15.889 29.4098C19.869 24.8298 22.609 19.6298 24.019 13.9698H24.009ZM21.679 4.34977L21.639 4.31977C13.639 5.15977 8.02902 7.71977 4.49902 12.1398C0.569015 17.0498 -0.770985 24.3698 0.419015 34.4998C0.509015 35.4398 0.619015 36.2098 0.699015 36.7498L0.749015 36.7798C5.03902 34.6898 21.759 25.1498 21.679 4.35977V4.34977ZM43.579 10.4798C42.349 13.8598 40.649 17.0598 38.529 19.9698C31.779 29.2698 21.759 34.4098 14.549 37.0798C12.199 37.9598 10.019 38.6098 8.11902 39.1198V39.1498C13.839 39.4398 19.059 38.8998 23.659 37.5498C28.879 36.0198 33.219 33.4698 36.559 29.9798C41.459 24.8598 43.909 18.0198 43.599 10.4798H43.579Z" fill="white"/>
<path d="M66.1403 18.3297C65.0003 17.5497 62.7003 16.6597 60.3203 16.6597C57.9403 16.6597 56.2503 17.7097 56.2503 19.3397C56.2503 20.7797 57.5603 21.4497 59.7503 21.7197L61.8403 21.9897C65.6803 22.4997 67.9403 24.1197 67.9403 27.1097C67.9403 30.5497 64.8603 32.7797 59.9303 32.7797C57.7103 32.7797 54.7003 32.2497 52.3203 30.4597L53.7703 28.1397C55.1303 29.1897 56.9303 30.0597 59.9503 30.0597C62.9703 30.0597 64.7403 29.0897 64.7403 27.2997C64.7403 25.9697 63.5603 25.1297 61.1103 24.8297L59.0203 24.5797C54.9803 24.0797 53.0203 22.2497 53.0203 19.5197C53.0203 16.0597 55.8903 13.9697 60.2803 13.9697C63.1303 13.9697 65.7403 14.7197 67.4903 15.9297L66.1303 18.3497L66.1403 18.3297Z" fill="white"/>
<path d="M86.8902 24.8096C86.8902 30.2696 82.9702 32.7596 78.6602 32.7596C74.3502 32.7596 70.4102 30.2696 70.4102 24.8096V14.3096H73.5302V24.5196C73.5302 28.2096 75.7202 29.8396 78.6702 29.8396C81.6202 29.8396 83.7902 28.1996 83.7902 24.5196V14.3096H86.9102V24.8096H86.8902Z" fill="white"/>
<path d="M105.258 16.5696L94.1278 29.5696H105.428V32.3896H90.0078V30.1296L101.268 17.1596H90.3378V14.3096H105.268V16.5696H105.258Z" fill="white"/>
<path d="M125.428 32.39H122.308V29.98C120.878 31.67 118.768 32.78 115.938 32.78C110.858 32.78 106.898 28.82 106.898 23.37C106.898 17.92 110.858 13.96 115.938 13.96C118.768 13.96 120.878 15.06 122.308 16.78V14.33H125.428V32.41V32.39ZM110.078 23.35C110.078 26.94 112.588 29.85 116.298 29.85C120.008 29.85 122.498 27.05 122.498 23.35C122.498 19.65 119.948 16.87 116.298 16.87C112.538 16.87 110.078 19.76 110.078 23.35Z" fill="white"/>
<path d="M146.258 21.1597V32.3897H143.138V22.1797C143.138 18.8497 141.308 16.8897 138.168 16.8897C135.258 16.8897 132.828 18.8897 132.828 22.2497V32.3897H129.738V14.3097H132.818V16.6697C134.298 14.6297 136.638 13.9297 138.738 13.9297C143.188 13.9297 146.268 16.8197 146.268 21.1597H146.258Z" fill="white"/>
<path d="M168.108 23.3495C168.108 28.7095 164.018 32.7595 158.538 32.7595C153.058 32.7595 148.988 28.7095 148.988 23.3495C148.988 17.9895 153.058 13.9395 158.538 13.9395C164.018 13.9395 168.108 17.9895 168.108 23.3495ZM152.168 23.3495C152.168 27.1295 154.908 29.8495 158.538 29.8495C162.168 29.8495 164.908 27.1295 164.908 23.3495C164.908 19.5695 162.148 16.8695 158.538 16.8695C154.928 16.8695 152.168 19.5695 152.168 23.3495Z" fill="white"/>
<path d="M52.6584 50.0303V44.7203H53.8084V45.4803L53.9684 45.3503C54.6084 44.8403 55.2184 44.5903 55.8084 44.5903C56.3984 44.5903 56.8484 44.7703 57.1784 45.1303C57.5084 45.4903 57.6684 45.9803 57.6684 46.5903V50.0203H56.4884V46.8003C56.4884 46.4603 56.4084 46.1903 56.2484 45.9903C56.0884 45.7903 55.8684 45.7003 55.5684 45.7003C55.1384 45.7003 54.6984 45.8603 54.2484 46.1903L53.8284 46.5003V50.0303H52.6484H52.6584Z" fill="white"/>
<path d="M59.9602 49.7903C59.5502 49.5403 59.2302 49.2103 59.0002 48.7903C58.7702 48.3703 58.6602 47.9003 58.6602 47.3903C58.6602 46.8803 58.7802 46.4303 59.0102 46.0003C59.2402 45.5703 59.5602 45.2303 59.9702 44.9803C60.3802 44.7303 60.8502 44.6003 61.3702 44.6003C61.8902 44.6003 62.3602 44.7203 62.7702 44.9703C63.1802 45.2203 63.4902 45.5603 63.7202 45.9903C63.9502 46.4203 64.0602 46.8903 64.0602 47.3903C64.0602 47.8903 63.9502 48.3603 63.7202 48.7803C63.4902 49.2003 63.1702 49.5403 62.7602 49.7903C62.3502 50.0403 61.8802 50.1603 61.3602 50.1603C60.8402 50.1603 60.3602 50.0403 59.9502 49.7903H59.9602ZM62.4702 48.6303C62.7402 48.3103 62.8802 47.9003 62.8802 47.3903C62.8802 46.8803 62.7402 46.4703 62.4702 46.1403C62.2002 45.8103 61.8302 45.6503 61.3602 45.6503C60.8902 45.6503 60.5202 45.8103 60.2402 46.1303C59.9702 46.4503 59.8302 46.8703 59.8302 47.3803C59.8302 47.8903 59.9702 48.2903 60.2402 48.6103C60.5102 48.9303 60.8902 49.0903 61.3602 49.0903C61.8302 49.0903 62.1902 48.9303 62.4702 48.6103V48.6303ZM61.6002 43.9203H60.4302L61.9302 42.2803H63.1802L61.6002 43.9203Z" fill="white"/>
<path d="M65.8592 50.0401C65.5192 49.9601 65.2192 49.8601 64.9492 49.7301V48.6901C65.6092 48.9801 66.2492 49.1301 66.8792 49.1301C67.2192 49.1301 67.4792 49.0801 67.6492 48.9801C67.8192 48.8801 67.9092 48.7301 67.9092 48.5401C67.9092 48.3501 67.8292 48.2001 67.6692 48.1001C67.5092 48.0001 67.2492 47.9101 66.8992 47.8201L66.2692 47.6701C65.8592 47.5701 65.5292 47.4001 65.2992 47.1601C65.0692 46.9201 64.9492 46.6101 64.9492 46.2501C64.9492 45.7401 65.1492 45.3301 65.5392 45.0301C65.9292 44.7301 66.4492 44.5801 67.0892 44.5801C67.3692 44.5801 67.6592 44.6201 67.9592 44.6901C68.2592 44.7601 68.5092 44.8501 68.6992 44.9501V45.9601C68.0492 45.7301 67.4992 45.6101 67.0592 45.6101C66.4092 45.6101 66.0792 45.7901 66.0792 46.1601C66.0792 46.3401 66.1492 46.4701 66.2792 46.5501C66.4092 46.6301 66.6592 46.7201 67.0292 46.8101L67.5992 46.9601C68.5592 47.2101 69.0392 47.7201 69.0392 48.5001C69.0392 49.0301 68.8492 49.4301 68.4592 49.7201C68.0692 50.0001 67.5292 50.1501 66.8492 50.1501C66.5192 50.1501 66.1892 50.1101 65.8492 50.0301L65.8592 50.0401Z" fill="white"/>
<path d="M72.5781 52.2906V44.7206H73.7281V45.3706L73.8481 45.2806C74.4481 44.8206 75.0181 44.6006 75.5281 44.6006C75.9481 44.6006 76.3281 44.7106 76.6681 44.9306C77.0081 45.1506 77.2781 45.4606 77.4781 45.8706C77.6781 46.2806 77.7681 46.7606 77.7681 47.3206C77.7681 47.9206 77.6481 48.4306 77.4081 48.8606C77.1681 49.2906 76.8381 49.6106 76.4381 49.8306C76.0381 50.0506 75.5781 50.1606 75.0781 50.1606C74.6381 50.1606 74.2081 50.0606 73.7581 49.8506V52.2906H72.5781ZM76.1581 48.6606C76.4481 48.3606 76.5981 47.9206 76.5981 47.3406C76.5981 46.7606 76.4781 46.3706 76.2481 46.0906C76.0181 45.8106 75.6881 45.6706 75.2681 45.6706C74.8481 45.6706 74.4281 45.8306 74.0281 46.1406L73.7581 46.3606V48.8806C74.1481 49.0306 74.5481 49.1106 74.9681 49.1106C75.4781 49.1106 75.8681 48.9606 76.1581 48.6606Z" fill="white"/>
<path d="M81.1603 50.0302H78.9003V43.4602H77.8203V42.4502H80.0803V49.0202H81.1603V50.0302Z" fill="white"/>
<path d="M82.6273 49.8306C82.2873 49.6106 82.0173 49.3006 81.8173 48.8906C81.6173 48.4806 81.5273 48.0006 81.5273 47.4406C81.5273 46.8406 81.6473 46.3306 81.8873 45.9006C82.1273 45.4706 82.4473 45.1506 82.8373 44.9306C83.2273 44.7106 83.6473 44.6006 84.0773 44.6006C84.5673 44.6006 85.0573 44.7706 85.5373 45.1206V44.7306H86.7173V50.0406H85.5373V49.4006L85.4173 49.4906C84.8873 49.9406 84.3373 50.1606 83.7673 50.1606C83.3473 50.1606 82.9673 50.0506 82.6173 49.8306H82.6273ZM85.2673 48.6106L85.5373 48.3906V46.0606C85.3373 45.9306 85.1273 45.8206 84.8973 45.7406C84.6673 45.6606 84.4473 45.6206 84.2373 45.6206C83.7773 45.6206 83.4073 45.7706 83.1273 46.0806C82.8473 46.3906 82.6973 46.8306 82.6973 47.4106C82.6973 47.9906 82.8173 48.3706 83.0473 48.6606C83.2773 48.9506 83.6073 49.0906 84.0273 49.0906C84.4473 49.0906 84.8373 48.9306 85.2673 48.6106Z" fill="white"/>
<path d="M88.1897 50.0303V44.7203H89.3397V45.4803L89.4997 45.3503C90.1397 44.8403 90.7497 44.5903 91.3397 44.5903C91.9297 44.5903 92.3797 44.7703 92.7097 45.1303C93.0397 45.4903 93.1997 45.9803 93.1997 46.5903V50.0203H92.0197V46.8003C92.0197 46.4603 91.9397 46.1903 91.7797 45.9903C91.6197 45.7903 91.3997 45.7003 91.0997 45.7003C90.6697 45.7003 90.2297 45.8603 89.7797 46.1903L89.3597 46.5003V50.0303H88.1797H88.1897Z" fill="white"/>
<path d="M95.4602 49.59C95.1302 49.21 94.9602 48.69 94.9602 48.04V45.73H93.9102V44.72H94.9602V43.25H96.1402V44.72H97.9102V45.73H96.1402V48.07C96.1402 48.4 96.2202 48.65 96.3702 48.83C96.5202 49.01 96.7602 49.1 97.0602 49.1C97.3602 49.1 97.6702 49.04 97.9902 48.91V49.94C97.6002 50.08 97.2402 50.15 96.8902 50.15C96.2702 50.15 95.7901 49.96 95.4501 49.58L95.4602 49.59Z" fill="white"/>
<path d="M99.6273 49.8306C99.2873 49.6106 99.0173 49.3006 98.8173 48.8906C98.6173 48.4806 98.5273 48.0006 98.5273 47.4406C98.5273 46.8406 98.6473 46.3306 98.8873 45.9006C99.1273 45.4706 99.4473 45.1506 99.8373 44.9306C100.227 44.7106 100.647 44.6006 101.077 44.6006C101.567 44.6006 102.057 44.7706 102.537 45.1206V44.7306H103.717V50.0406H102.537V49.4006L102.417 49.4906C101.887 49.9406 101.337 50.1606 100.767 50.1606C100.347 50.1606 99.9673 50.0506 99.6173 49.8306H99.6273ZM102.267 48.6106L102.537 48.3906V46.0606C102.337 45.9306 102.127 45.8206 101.897 45.7406C101.667 45.6606 101.447 45.6206 101.237 45.6206C100.777 45.6206 100.407 45.7706 100.127 46.0806C99.8473 46.3906 99.6973 46.8306 99.6973 47.4106C99.6973 47.9906 99.8173 48.3706 100.047 48.6606C100.277 48.9506 100.607 49.0906 101.027 49.0906C101.447 49.0906 101.837 48.9306 102.267 48.6106Z" fill="white"/>
<path d="M105.188 50.0303V44.7203H106.337V45.4003L106.447 45.3203C106.717 45.1003 106.998 44.9303 107.298 44.7903C107.598 44.6603 107.878 44.5903 108.158 44.5903C108.498 44.5903 108.787 44.6703 109.037 44.8203C109.287 44.9703 109.487 45.1803 109.627 45.4603L109.827 45.3003C110.397 44.8303 111.008 44.5903 111.658 44.5903C112.208 44.5903 112.628 44.7603 112.938 45.1103C113.248 45.4503 113.397 45.9303 113.397 46.5503V50.0203H112.217V46.6903C112.217 46.3703 112.147 46.1203 112.007 45.9503C111.867 45.7803 111.668 45.6903 111.408 45.6903C110.978 45.6903 110.567 45.8303 110.167 46.1203L109.877 46.3403C109.877 46.3403 109.887 46.4703 109.887 46.5803V50.0103H108.707V46.6803C108.707 46.3603 108.637 46.1103 108.497 45.9403C108.357 45.7703 108.157 45.6803 107.887 45.6803C107.507 45.6803 107.117 45.8303 106.707 46.1403L106.368 46.3903V50.0003H105.188V50.0303Z" fill="white"/>
<path d="M115.687 49.7906C115.277 49.5406 114.957 49.2106 114.727 48.7906C114.497 48.3706 114.387 47.9006 114.387 47.3906C114.387 46.8806 114.507 46.4306 114.737 46.0006C114.967 45.5706 115.287 45.2306 115.697 44.9806C116.107 44.7306 116.577 44.6006 117.097 44.6006C117.617 44.6006 118.087 44.7206 118.497 44.9706C118.907 45.2206 119.217 45.5606 119.447 45.9906C119.677 46.4206 119.787 46.8906 119.787 47.3906C119.787 47.8906 119.677 48.3606 119.447 48.7806C119.217 49.2006 118.897 49.5406 118.487 49.7906C118.077 50.0406 117.607 50.1606 117.087 50.1606C116.567 50.1606 116.087 50.0406 115.677 49.7906H115.687ZM118.197 48.6306C118.467 48.3106 118.607 47.9006 118.607 47.3906C118.607 46.8806 118.467 46.4706 118.197 46.1406C117.927 45.8106 117.557 45.6506 117.087 45.6506C116.617 45.6506 116.247 45.8106 115.967 46.1306C115.697 46.4506 115.557 46.8706 115.557 47.3806C115.557 47.8906 115.697 48.2906 115.967 48.6106C116.237 48.9306 116.617 49.0906 117.087 49.0906C117.557 49.0906 117.917 48.9306 118.197 48.6106V48.6306Z" fill="white"/>
<path d="M121.59 50.0401C121.25 49.9601 120.95 49.8601 120.68 49.7301V48.6901C121.34 48.9801 121.98 49.1301 122.61 49.1301C122.95 49.1301 123.21 49.0801 123.38 48.9801C123.55 48.8801 123.64 48.7301 123.64 48.5401C123.64 48.3501 123.56 48.2001 123.4 48.1001C123.24 48.0001 122.98 47.9101 122.63 47.8201L122 47.6701C121.59 47.5701 121.26 47.4001 121.03 47.1601C120.8 46.9201 120.68 46.6101 120.68 46.2501C120.68 45.7401 120.88 45.3301 121.27 45.0301C121.66 44.7301 122.18 44.5801 122.82 44.5801C123.1 44.5801 123.39 44.6201 123.69 44.6901C123.99 44.7601 124.24 44.8501 124.43 44.9501V45.9601C123.78 45.7301 123.23 45.6101 122.79 45.6101C122.14 45.6101 121.81 45.7901 121.81 46.1601C121.81 46.3401 121.88 46.4701 122.01 46.5501C122.14 46.6301 122.39 46.7201 122.76 46.8101L123.33 46.9601C124.29 47.2101 124.77 47.7201 124.77 48.5001C124.77 49.0301 124.58 49.4301 124.19 49.7201C123.8 50.0001 123.26 50.1501 122.58 50.1501C122.25 50.1501 121.92 50.1101 121.58 50.0301L121.59 50.0401Z" fill="white"/>
<path d="M129.257 49.7906C128.847 49.5406 128.527 49.2106 128.297 48.7906C128.067 48.3706 127.957 47.9006 127.957 47.3906C127.957 46.8806 128.077 46.4306 128.307 46.0006C128.537 45.5706 128.857 45.2306 129.267 44.9806C129.677 44.7306 130.147 44.6006 130.667 44.6006C131.187 44.6006 131.657 44.7206 132.067 44.9706C132.477 45.2206 132.787 45.5606 133.017 45.9906C133.247 46.4206 133.357 46.8906 133.357 47.3906C133.357 47.8906 133.247 48.3606 133.017 48.7806C132.787 49.2006 132.467 49.5406 132.057 49.7906C131.647 50.0406 131.177 50.1606 130.657 50.1606C130.137 50.1606 129.657 50.0406 129.247 49.7906H129.257ZM131.767 48.6306C132.037 48.3106 132.177 47.9006 132.177 47.3906C132.177 46.8806 132.037 46.4706 131.767 46.1406C131.497 45.8106 131.127 45.6506 130.657 45.6506C130.187 45.6506 129.817 45.8106 129.537 46.1306C129.267 46.4506 129.127 46.8706 129.127 47.3806C129.127 47.8906 129.267 48.2906 129.537 48.6106C129.807 48.9306 130.187 49.0906 130.657 49.0906C131.127 49.0906 131.487 48.9306 131.767 48.6106V48.6306Z" fill="white"/>
<path d="M137.47 50.0306V45.7306H136.43V44.7206H137.47V44.5606C137.47 44.1206 137.56 43.7406 137.73 43.4006C137.91 43.0606 138.15 42.8006 138.46 42.6206C138.77 42.4406 139.13 42.3506 139.54 42.3506C139.93 42.3506 140.3 42.4306 140.66 42.5906V43.5906C140.33 43.4506 140 43.3806 139.66 43.3806C139.35 43.3806 139.11 43.4806 138.92 43.6806C138.74 43.8806 138.65 44.1506 138.65 44.5006V44.7206H140.56V45.7306H138.65V50.0306H137.47Z" fill="white"/>
<path d="M142.07 49.4402C141.63 48.9702 141.41 48.3202 141.41 47.5002V44.7202H142.59V47.4502C142.59 47.9902 142.7 48.4002 142.93 48.6802C143.15 48.9602 143.47 49.1002 143.88 49.1002C144.29 49.1002 144.6 48.9602 144.82 48.6802C145.04 48.4002 145.15 48.0002 145.15 47.4702V44.7202H146.33V47.4602C146.33 48.0002 146.23 48.4702 146.03 48.8802C145.83 49.2902 145.54 49.6002 145.17 49.8202C144.8 50.0402 144.37 50.1502 143.88 50.1502C143.12 50.1502 142.52 49.9102 142.08 49.4402H142.07Z" fill="white"/>
<path d="M148.679 49.59C148.349 49.21 148.179 48.69 148.179 48.04V45.73H147.129V44.72H148.179V43.25H149.359V44.72H151.129V45.73H149.359V48.07C149.359 48.4 149.439 48.65 149.589 48.83C149.739 49.01 149.979 49.1 150.279 49.1C150.579 49.1 150.889 49.04 151.209 48.91V49.94C150.819 50.08 150.459 50.15 150.109 50.15C149.489 50.15 149.009 49.96 148.669 49.58L148.679 49.59Z" fill="white"/>
<path d="M152.75 49.4402C152.31 48.9702 152.09 48.3202 152.09 47.5002V44.7202H153.27V47.4502C153.27 47.9902 153.38 48.4002 153.61 48.6802C153.83 48.9602 154.15 49.1002 154.56 49.1002C154.97 49.1002 155.28 48.9602 155.5 48.6802C155.72 48.4002 155.83 48.0002 155.83 47.4702V44.7202H157.01V47.4602C157.01 48.0002 156.91 48.4702 156.71 48.8802C156.51 49.2902 156.22 49.6002 155.85 49.8202C155.48 50.0402 155.05 50.1502 154.56 50.1502C153.8 50.1502 153.2 49.9102 152.76 49.4402H152.75Z" fill="white"/>
<path d="M158.398 50.0304V44.7204H159.538V45.4504L159.658 45.3704C159.958 45.1304 160.248 44.9504 160.508 44.8204C160.778 44.6904 161.058 44.6304 161.358 44.6304H161.758V45.7004H161.328C161.128 45.7004 160.918 45.7404 160.678 45.8204C160.448 45.9004 160.218 46.0104 159.998 46.1704L159.578 46.4804V50.0404H158.398V50.0304Z" fill="white"/>
<path d="M163.417 49.7906C163.007 49.5406 162.687 49.2106 162.457 48.7906C162.227 48.3706 162.117 47.9006 162.117 47.3906C162.117 46.8806 162.237 46.4306 162.467 46.0006C162.697 45.5706 163.017 45.2306 163.427 44.9806C163.837 44.7306 164.307 44.6006 164.827 44.6006C165.347 44.6006 165.817 44.7206 166.227 44.9706C166.637 45.2206 166.947 45.5606 167.177 45.9906C167.407 46.4206 167.517 46.8906 167.517 47.3906C167.517 47.8906 167.407 48.3606 167.177 48.7806C166.947 49.2006 166.627 49.5406 166.217 49.7906C165.807 50.0406 165.337 50.1606 164.817 50.1606C164.297 50.1606 163.817 50.0406 163.407 49.7906H163.417ZM165.927 48.6306C166.197 48.3106 166.337 47.9006 166.337 47.3906C166.337 46.8806 166.197 46.4706 165.927 46.1406C165.657 45.8106 165.287 45.6506 164.817 45.6506C164.347 45.6506 163.977 45.8106 163.697 46.1306C163.427 46.4506 163.287 46.8706 163.287 47.3806C163.287 47.8906 163.427 48.2906 163.697 48.6106C163.967 48.9306 164.347 49.0906 164.817 49.0906C165.287 49.0906 165.647 48.9306 165.927 48.6106V48.6306Z" fill="white"/>
</g>
<defs>
<clipPath id="clip0_1487_19696">
<rect width="168.11" height="52.29" fill="white"/>
</clipPath>
</defs>
</svg>
